<svg width="166" height="29" viewBox="0 0 166 29" fill="none" xmlns="http://www.w3.org/2000/svg">
<path d="M22.4096 6.33304C23.5174 4.43353 24.5873 2.51329 25.7106 0.62207H31.7187C31.8062 0.626415 31.893 0.639844 31.9777 0.662133C31.7778 0.959147 31.6103 1.27412 31.4343 1.58357C29.9853 4.13559 28.5406 6.68899 27.1 9.24378C26.4947 10.284 25.9316 11.3477 25.3179 12.3825L25.2573 12.4032L25.2461 12.533C22.4213 17.5063 19.6059 22.4833 16.7999 27.4639C11.2845 27.4694 5.76873 27.4694 0.252441 27.4639C0.566357 26.8201 0.937989 26.2054 1.2871 25.5796C2.85809 22.7448 4.4699 19.9349 6.01836 17.1002C9.40715 17.0946 12.7959 17.0946 16.1847 17.1002C18.278 13.5222 20.3262 9.91655 22.4039 6.33304H22.4096Z" fill="#896E6E"/>
<path d="M84.4146 0.548828V27.7913H89.2247V8.63453L97.9988 21.2514L106.703 8.33475V27.7913H111.653V0.548828H106.328L98.034 13.1243L89.647 0.548828H84.4146Z" fill="#896E6E"/>
<path d="M61.915 7.57422H65.0584V28.0199H61.915V7.57422Z" fill="#896E6E"/>
<path d="M61.645 0H65.329V3.43017H61.645V0Z" fill="#896E6E"/>
<path d="M71.0653 1.71582H74.3495V7.5746H80.8249V10.4301H74.3495V22.5759C74.3438 23.0439 74.4545 23.5062 74.6718 23.9228C75.2279 24.9589 76.7383 26.1884 80.8249 24.7517V27.3986C80.8249 27.3986 77.0945 29.4708 73.716 27.5837C73.716 27.5837 72.038 26.8847 71.3328 24.5251C71.1496 23.8931 71.0595 23.2385 71.0653 22.5814V10.3845L68.2964 10.4301V7.5746H71.0878L71.0653 1.71582Z" fill="#896E6E"/>
<path d="M116.721 0.548828V27.975H137.601V23.5543H121.812V16.2782H135.725V11.9266H121.788V4.99714H137.438V0.548828H116.721Z" fill="#896E6E"/>
<path d="M139.561 0.548828H145.508L152.335 10.1776L159.109 0.548828H165.057L155.344 13.9242L165.662 27.9515H159.398L152.359 17.7066L144.98 27.975H139.033L149.203 14.0457L139.561 0.548828Z" fill="#896E6E"/>
<path d="M52.2947 13.7454C52.2947 13.7454 56.8936 12.0421 56.6121 7.13788C56.6121 7.13788 56.5741 2.42156 51.1629 0.965503C50.2632 0.728929 49.3352 0.611842 48.4038 0.617375H35.4263L35.4615 27.8598H49.4328C49.4328 27.8598 57.6087 27.6871 58.1845 20.5381C58.1845 20.5381 58.7701 15.5413 52.2947 13.7454ZM38.7808 3.43003H47.0637C53.5616 3.40793 53.3744 7.89768 53.3744 7.89768C53.4715 13.0201 47.5085 12.9165 47.5085 12.9165H38.7808V3.43003ZM48.9162 24.9809H38.7808V15.4957H48.4714C54.9693 15.4722 54.7821 19.962 54.7821 19.962C54.8792 25.0845 48.9162 24.9809 48.9162 24.9809Z" fill="#896E6E"/>
</svg>
